<mxfile host="app.diagrams.net" modified="2023-05-10T15:10:39.731Z" agent="Mozilla/5.0 (Windows NT 10.0; Win64; x64) AppleWebKit/537.36 (KHTML, like Gecko) Chrome/113.0.0.0 Safari/537.36" etag="ARmHTz-TIQ7iSc9FaXTj" version="21.1.4" type="github">
  <diagram name="Page-1" id="M4yYptoFP4h_a5hhyZvi">
    <mxGraphModel dx="1102" dy="532" grid="1" gridSize="10" guides="1" tooltips="1" connect="1" arrows="1" fold="1" page="1" pageScale="1" pageWidth="850" pageHeight="1100" math="0" shadow="0">
      <root>
        <mxCell id="0" />
        <mxCell id="1" parent="0" />
        <mxCell id="oK1gkYVJhAjU44Ra011C-1" value="" style="ellipse;whiteSpace=wrap;html=1;aspect=fixed;" parent="1" vertex="1">
          <mxGeometry x="170" y="300" width="540" height="540" as="geometry" />
        </mxCell>
        <mxCell id="oK1gkYVJhAjU44Ra011C-2" value="" style="ellipse;whiteSpace=wrap;html=1;aspect=fixed;" parent="1" vertex="1">
          <mxGeometry x="245" y="380" width="390" height="390" as="geometry" />
        </mxCell>
      </root>
    </mxGraphModel>
  </diagram>
</mxfile>
